<?xml version="1.0" encoding="utf-8"?>
<!-- Generator: Adobe Illustrator 22.1.0, SVG Export Plug-In . SVG Version: 6.00 Build 0)  -->
<svg version="1.1" id="Ebene_1" xmlns="http://www.w3.org/2000/svg" xmlns:xlink="http://www.w3.org/1999/xlink" x="0px" y="0px"
	 viewBox="0 0 392 121.3" style="enable-background:new 0 0 392 121.3;" xml:space="preserve">
<style type="text/css">
	.st0{fill:#FFFFFF;}
</style>
<g>
	<g>
		<path class="st0" d="M75.3,38.6c-0.5,0-0.9,0.4-0.9,0.8c0,0.5,0.4,0.9,0.8,0.9c0.5,0,0.9-0.4,0.9-0.8C76.1,39,75.8,38.6,75.3,38.6
			z"/>
		<path class="st0" d="M72.9,25.8c0-0.9-0.7-1.7-1.7-1.7c-0.9,0-1.7,0.7-1.7,1.7c0,0.9,0.7,1.7,1.7,1.7
			C72.2,27.5,72.9,26.7,72.9,25.8z M71.3,26.7c-0.5,0-0.9-0.4-0.9-0.9c0-0.5,0.4-0.9,0.9-0.9c0.5,0,0.9,0.4,0.9,0.9
			C72.1,26.3,71.7,26.7,71.3,26.7z"/>
		<path class="st0" d="M72.7,39.5c-0.5,0-0.9,0.4-0.9,0.8c0,0.5,0.4,0.9,0.8,0.9c0.5,0,0.9-0.4,0.9-0.8C73.5,40,73.1,39.6,72.7,39.5
			z"/>
		<path class="st0" d="M85.1,26.8c1.3,1.9,4.5,0.3,5.5-0.6c1.1-0.9,2.7-2.7,1.3-4.3c-1.2-1.3-3.6-0.2-4.7,0.6
			C85.9,23.6,84.1,25.4,85.1,26.8z"/>
		<path class="st0" d="M77.9,37.7c-0.5,0-0.9,0.4-0.9,0.8c0,0.5,0.4,0.9,0.8,0.9c0.5,0,0.9-0.4,0.9-0.8
			C78.8,38.1,78.4,37.7,77.9,37.7z"/>
		<path class="st0" d="M61,0C27.3,0,0,27.2,0,60.7c0,33.5,27.3,60.7,61,60.7c33.7,0,61-27.2,61-60.7C121.9,27.2,94.6,0,61,0z
			 M33.7,23.5c0.5,0.3,1.2,0.9,2.1,2c1.6,2,3.6,1.8,8.4,0.2c0.3-0.1,0.4-0.1,0.9,0.1c1.3,0.6,3,1.3,5.2,2.3c0.3,0.1,0.4,0.4,0,0.7
			c-1.1,0.9-2.6,2.2-4.4,3.8c-0.6,0.5-1.9,0.4-2.6,0.4c-7.9,0-10.6-5.2-11.1-8.1C31.8,23.3,32.9,23.1,33.7,23.5z M85.4,104.7
			c-0.4,0.4-1,1.1-1.4,1.5c-0.9,0.9-2.4-0.2-1.6-1.4c0.5-0.7,0.7-1,1.1-1.7c0.3-0.5-0.3-1-0.8-0.6c-0.4,0.4-1.2,1.2-1.5,1.5
			c-1,0.9-2.5-0.4-1.5-1.5c0.2-0.2,4.6-5,6.2-7.6c4-6.3,2.8-12.5,0-13.5c-5.1-1.8-6.7-5-6.7-5C71.2,77.8,58,77.3,50,74.1
			c-0.8-0.3-1.9-0.7-2.3-0.9c-0.6-0.2-0.8,0.2-0.6,0.7c3.3,8.6-6.3,15.5-6.3,15.7c-0.2,7,2.7,10.1,5.4,10.4
			c5.6,0.5,12.6,0.7,17.4,0.9c1.5,0.1,1.4,2,0.3,2.3c-0.6,0.1-1.6,0.2-2.4,0.3c-0.7,0.1-0.7,0.9,0,1c0.6,0.1,1.7,0.3,2.3,0.4
			c1.3,0.2,1.1,2.3-0.2,2.3c-3.2,0-10.2,0.2-19-0.2c-4.6-0.2-7.6-2-10.5-6.5c-2.9-4.5-8.1-16-7.8-22.9c-1.2,0.1-3.3,0.1-6.6,2.4
			c-3.3,2.4-4,3.8-5.4,3.5c-1.4-0.3-1.4-3.2,0.1-6.2c2.6-5.3,6.1-8.4,13-11c1.4-3.2,3.5-6.4,7-8.5c9.1-5.3,27.4-3,32.5-6.2
			c6.2-3.8,3.7-13.1,1.8-14.9c-6.6-6.3-16.5-0.6-20.9-1.3c-2.6-0.4-2.1-1.4-1.8-1.7c0.7-0.7,5.1-4.5,5.6-4.9c0.3-0.3,0.4-0.8-0.1-1
			c-0.9-0.4-4-1.9-6.3-2.9c-1-0.4-4.3-2.5-2.9-4.2c2.2-2.6,14.5,3.1,21.1,2.6c3.8-0.3,4.7-3.3,10.8-1.6c1.8,0.5,3.4,0.7,4-0.9
			c1.1-3.2,2.9-4.8,4.6-5.6c1.9-0.9,3.8-0.8,5.2,0.5c1.4,1.4,1.1,3,0.7,4c-0.1,0.2,0.1,0.4,0.3,0.3c2-0.7,3.6-0.3,4.7,1.1
			c1.6,2,0.4,4.5-1,6c-1.4,1.4-3.5,2.8-7.6,3c-0.9,0-1.2,0.8-1.1,1.8c0.1,2.4,2.3,6.6,3.9,9.9c7.3,14.9,5.7,21.6,4.6,26.1
			c-1,4.2,1.5,9.8,2.2,12.1C97.5,89.5,91.7,97.7,85.4,104.7z"/>
		<path class="st0" d="M83.1,35.9c-0.5,0-0.9,0.4-0.9,0.8c0,0.5,0.4,0.9,0.8,0.9c0.5,0,0.9-0.4,0.9-0.8
			C83.9,36.3,83.5,35.9,83.1,35.9z"/>
		<path class="st0" d="M86.3,17c-1.3-1.2-3.1-0.3-4.4,0.9c-1.6,1.5-2.3,3.9-1.3,4.8c1.2,1.1,2.9,0.7,4.6-1
			C86.1,20.9,87.8,18.3,86.3,17z"/>
		<path class="st0" d="M80.5,36.8c-0.5,0-0.9,0.4-0.9,0.8c0,0.5,0.4,0.9,0.8,0.9c0.5,0,0.9-0.4,0.9-0.8C81.3,37.2,81,36.8,80.5,36.8
			z"/>
	</g>
	<g>
		<g>
			<g>
				<path class="st0" d="M144.3,66.5V65h18.3v1.5H144.3z"/>
			</g>
		</g>
		<g>
			<path class="st0" d="M152.2,38.3l-1-2.9h-4.7l-1,2.9h-1.7l4.2-11.4h1.7l4.2,11.4H152.2z M148.8,28.6L148.8,28.6L147,34h3.7
				L148.8,28.6z"/>
			<path class="st0" d="M163.4,38.3l-1.5-3.7c-0.3-0.7-0.8-1-1.4-1h-1.7v4.7h-1.7V26.9h3.7c2.4,0,3.8,1,3.8,3.2
				c0,1.4-0.8,2.4-2.3,2.9v0c0,0,0.6,0.2,0.9,0.9l2,4.4H163.4z M160.7,28.3h-1.9v3.9h1.6c1.8,0,2.6-0.8,2.6-2
				C163,28.9,162.4,28.3,160.7,28.3z"/>
			<path class="st0" d="M172.8,38.5c-3.9,0-4.4-2.9-4.4-5.9c0-3,0.6-5.9,4.7-5.9c1,0,1.9,0.2,2.6,0.6l-0.1,1.5
				c-0.9-0.4-1.7-0.6-2.4-0.6c-2.1,0-3.1,1.2-3.1,3.6v1.7c0,2.6,1.2,3.6,3.1,3.6c0.9,0,1.8-0.4,2.5-0.8l0.1,1.5
				C175,38.2,174,38.5,172.8,38.5z"/>
			<path class="st0" d="M186.4,38.3v-5.2h-5v5.2h-1.7V26.9h1.7v4.8h5v-4.8h1.6v11.4H186.4z"/>
			<path class="st0" d="M200.3,38.3l-1-2.9h-4.7l-1,2.9H192l4.2-11.4h1.7l4.2,11.4H200.3z M197,28.6L197,28.6l-1.9,5.4h3.7L197,28.6
				z"/>
			<path class="st0" d="M209.9,38.5c-3.9,0-4.6-2.6-4.6-5.9c0-3.3,0.8-5.9,4.7-5.9c3.9,0,4.6,2.6,4.6,5.9
				C214.6,35.9,213.8,38.5,209.9,38.5z M212.9,31.7c0-2.3-0.9-3.6-2.9-3.6c-2,0-3,1.3-3,3.6v1.7c0,2.3,0.9,3.6,2.9,3.6
				c2,0,3-1.3,3-3.6V31.7z"/>
			<path class="st0" d="M218.4,38.3V26.9h1.7v9.9l4.7,0v1.4H218.4z"/>
			<path class="st0" d="M232.2,38.5c-3.9,0-4.6-2.6-4.6-5.9c0-3.3,0.8-5.9,4.7-5.9c3.9,0,4.6,2.6,4.6,5.9
				C236.9,35.9,236.1,38.5,232.2,38.5z M235.2,31.7c0-2.3-0.9-3.6-2.9-3.6c-2,0-3,1.3-3,3.6v1.7c0,2.3,0.9,3.6,2.9,3.6
				c2,0,3-1.3,3-3.6V31.7z"/>
			<path class="st0" d="M244.5,38.5c-3.9,0-4.4-2.9-4.4-5.9c0-3,0.7-5.9,5-5.9c1.9,0,3.1,0.7,3.1,0.7l-0.1,1.5c0,0-1.6-0.7-3-0.7
				c-2.2,0-3.3,1.2-3.3,3.6v1.7c0,2.7,1.2,3.6,2.8,3.6c1.2,0,2.1-0.4,2.1-0.4v-3h-2.1v-1.5h3.8v5.3
				C248.4,37.4,246.8,38.5,244.5,38.5z"/>
			<path class="st0" d="M252.7,38.3V26.9h1.7v11.4H252.7z"/>
			<path class="st0" d="M261.4,38.5c-1.2,0-2.2-0.2-3.2-0.7l0.1-1.6c0.9,0.5,2,0.9,3,0.9c1.7,0,2.5-0.8,2.5-1.8c0-1.1-1.2-1.6-2.2-2
				l-0.4-0.1c-1.6-0.6-2.9-1.4-2.9-3.3c0-1.9,1.5-3.1,3.9-3.1c1.4,0,2.1,0.3,2.8,0.6l-0.1,1.6c-0.8-0.4-1.8-0.7-2.6-0.7
				c-1.4,0-2.3,0.5-2.3,1.6c0,1.1,1.1,1.6,2.1,1.9l0.4,0.1c1.7,0.6,3,1.5,3,3.4C265.6,37.1,264.1,38.5,261.4,38.5z"/>
			<path class="st0" d="M273.1,38.5c-3.9,0-4.4-2.9-4.4-5.9c0-3,0.6-5.9,4.7-5.9c1,0,1.9,0.2,2.6,0.6l-0.1,1.5
				c-0.9-0.4-1.7-0.6-2.4-0.6c-2.1,0-3.1,1.2-3.1,3.6v1.7c0,2.6,1.2,3.6,3.1,3.6c0.9,0,1.8-0.4,2.5-0.8l0.1,1.5
				C275.4,38.2,274.4,38.5,273.1,38.5z"/>
			<path class="st0" d="M286.7,38.3v-5.2h-5v5.2H280V26.9h1.7v4.8h5v-4.8h1.6v11.4H286.7z"/>
			<path class="st0" d="M292.7,38.3V26.9h6.3v1.4h-4.7v3.3h4.3V33h-4.3v3.8l4.7,0v1.4H292.7z"/>
			<path class="st0" d="M305.9,38.5c-1.1,0-2.2-0.2-3.2-0.7l0.1-1.6c0.9,0.5,2,0.9,3,0.9c1.7,0,2.5-0.8,2.5-1.8c0-1.1-1.2-1.6-2.2-2
				l-0.4-0.1c-1.5-0.6-2.9-1.4-2.9-3.3c0-1.9,1.5-3.1,3.9-3.1c1.4,0,2.1,0.3,2.8,0.6l-0.1,1.6c-0.8-0.4-1.8-0.7-2.6-0.7
				c-1.4,0-2.3,0.5-2.3,1.6c0,1.1,1.2,1.6,2.1,1.9l0.4,0.1c1.7,0.6,3,1.5,3,3.4C310.1,37.1,308.6,38.5,305.9,38.5z"/>
			<path class="st0" d="M329.5,38.3l-0.4-9.1h0l-3.6,6.5l-3.6-6.5h0l-0.4,9.1h-1.6l0.7-11.4h1.7l3.2,5.8h0l3.2-5.8h1.7l0.7,11.4
				H329.5z"/>
			<path class="st0" d="M339.1,38.5c-2.7,0-4.1-1.2-4.1-4v-7.6h1.7v7.6c0,1.7,0.8,2.6,2.5,2.6c1.7,0,2.5-0.9,2.5-2.6v-7.6h1.6v7.6
				C343.2,37.3,341.7,38.5,339.1,38.5z"/>
			<path class="st0" d="M350,38.5c-1.1,0-2.2-0.2-3.2-0.7l0.1-1.6c0.9,0.5,2,0.9,3,0.9c1.8,0,2.5-0.8,2.5-1.8c0-1.1-1.2-1.6-2.2-2
				l-0.4-0.1c-1.5-0.6-2.9-1.4-2.9-3.3c0-1.9,1.5-3.1,3.9-3.1c1.4,0,2.1,0.3,2.8,0.6l-0.1,1.6c-0.8-0.4-1.8-0.7-2.6-0.7
				c-1.4,0-2.3,0.5-2.3,1.6c0,1.1,1.1,1.6,2.1,1.9l0.4,0.1c1.8,0.6,3,1.5,3,3.4C354.2,37.1,352.7,38.5,350,38.5z"/>
			<path class="st0" d="M358.2,38.3V26.9h6.3v1.4h-4.7v3.3h4.3V33h-4.3v3.8l4.7,0v1.4H358.2z"/>
			<path class="st0" d="M372.8,38.5c-2.7,0-4.1-1.2-4.1-4v-7.6h1.7v7.6c0,1.7,0.8,2.6,2.5,2.6c1.7,0,2.5-0.9,2.5-2.6v-7.6h1.6v7.6
				C376.9,37.3,375.5,38.5,372.8,38.5z"/>
			<path class="st0" d="M390.4,38.3l-0.4-9.1h0l-3.6,6.5l-3.6-6.5h0l-0.4,9.1h-1.6l0.7-11.4h1.7l3.2,5.8h0l3.2-5.8h1.7l0.7,11.4
				H390.4z"/>
			<path class="st0" d="M151,56.3v-5.2h-5v5.2h-1.7V44.9h1.7v4.8h5v-4.8h1.6v11.4H151z"/>
			<path class="st0" d="M164.4,56.3l-1-2.9h-4.7l-1,2.9H156l4.2-11.4h1.7l4.2,11.4H164.4z M161,46.7L161,46.7l-1.9,5.4h3.7L161,46.7
				z"/>
			<path class="st0" d="M179.3,56.3l-0.4-9.1h0l-3.6,6.5l-3.6-6.5h0l-0.4,9.1h-1.6l0.7-11.4h1.7l3.2,5.8h0l3.2-5.8h1.7l0.7,11.4
				H179.3z"/>
			<path class="st0" d="M188.8,56.3h-3.3V44.9h3.4c1.8,0,3.7,0.5,3.7,2.8c0,2-1.8,2.5-1.8,2.5v0c0,0,2.2,0.3,2.2,2.7
				C193,55.2,191.6,56.3,188.8,56.3z M188.8,46.3h-1.7v3.4h1.5c1.5,0,2.3-0.6,2.3-1.8C191,46.7,190.2,46.3,188.8,46.3z M188.7,51
				h-1.6v3.8h1.6c1.7,0,2.6-0.6,2.6-1.9C191.3,51.6,190.4,51,188.7,51z"/>
			<path class="st0" d="M201.3,56.5c-2.7,0-4.1-1.2-4.1-4v-7.6h1.7v7.6c0,1.7,0.8,2.6,2.5,2.6c1.7,0,2.5-0.9,2.5-2.6v-7.6h1.6v7.6
				C205.4,55.3,203.9,56.5,201.3,56.5z"/>
			<path class="st0" d="M216,56.3l-1.5-3.7c-0.3-0.7-0.8-1-1.4-1h-1.7v4.7h-1.7V44.9h3.7c2.4,0,3.9,1,3.9,3.2c0,1.4-0.8,2.4-2.3,2.9
				v0c0,0,0.6,0.2,0.9,0.9l2,4.4H216z M213.3,46.3h-1.9v3.9h1.6c1.8,0,2.6-0.8,2.6-2C215.6,47,215,46.3,213.3,46.3z"/>
			<path class="st0" d="M225.5,56.5c-3.9,0-4.4-2.9-4.4-5.9c0-3,0.7-5.9,5-5.9c1.9,0,3.1,0.7,3.1,0.7l-0.1,1.5c0,0-1.6-0.7-3-0.7
				c-2.2,0-3.3,1.2-3.3,3.6v1.7c0,2.7,1.2,3.6,2.8,3.6c1.2,0,2.1-0.4,2.1-0.4v-3h-2.1v-1.5h3.8v5.3
				C229.4,55.5,227.8,56.5,225.5,56.5z"/>
			
				<rect x="191.7" y="27" transform="matrix(0.7068 -0.7074 0.7074 0.7068 36.765 144.3625)" class="st0" width="1.6" height="1.6"/>
			<rect x="200.7" y="27" transform="matrix(0.7062 -0.708 0.708 0.7062 39.5076 150.867)" class="st0" width="1.6" height="1.6"/>
		</g>
		<g>
			<path class="st0" d="M147.1,87.3c-1.1,0-2.2-0.2-3.2-0.7L144,85c0.9,0.5,2,0.9,3,0.9c1.7,0,2.5-0.8,2.5-1.8c0-1.1-1.2-1.6-2.2-2
				l-0.4-0.2c-1.5-0.6-2.9-1.3-2.9-3.3c0-1.9,1.5-3.1,3.9-3.1c1.4,0,2.1,0.3,2.8,0.6l-0.1,1.5c-0.8-0.4-1.8-0.7-2.6-0.7
				c-1.4,0-2.3,0.5-2.3,1.6c0,1.1,1.2,1.6,2.1,1.9l0.4,0.1c1.7,0.6,3,1.5,3,3.4C151.3,85.9,149.8,87.3,147.1,87.3z"/>
			<path class="st0" d="M158.8,77.1v10h-1.7v-10h-3.3v-1.4h8.2v1.4H158.8z"/>
			<path class="st0" d="M171.8,87.1l-1-2.9h-4.7l-1,2.9h-1.7l4.2-11.4h1.7l4.2,11.4H171.8z M168.4,77.5L168.4,77.5l-1.9,5.4h3.7
				L168.4,77.5z"/>
			<path class="st0" d="M179.8,87.1h-2.9V75.7h3.5c4.2,0,5,2.1,5,5.6C185.4,85.1,184.3,87.1,179.8,87.1z M183.7,80.6
				c0-2.7-1.3-3.5-3.3-3.5h-1.8v8.6h1.1c2.9,0,4-0.9,4-3.6V80.6z"/>
			<path class="st0" d="M193.4,77.1v10h-1.7v-10h-3.3v-1.4h8.2v1.4H193.4z"/>
			<path class="st0" d="M209.9,87.1l-0.4-9.1h0l-3.6,6.5l-3.6-6.5h0l-0.4,9.1h-1.6l0.7-11.4h1.7l3.2,5.8h0l3.2-5.8h1.7l0.7,11.4
				H209.9z"/>
			<path class="st0" d="M219.7,87.3c-2.7,0-4.1-1.2-4.1-4v-7.6h1.7v7.6c0,1.7,0.8,2.6,2.5,2.6c1.7,0,2.5-0.9,2.5-2.6v-7.6h1.6v7.6
				C223.8,86.1,222.3,87.3,219.7,87.3z"/>
			<path class="st0" d="M230.9,87.3c-1.2,0-2.2-0.2-3.2-0.7l0.1-1.6c0.9,0.5,2,0.9,3,0.9c1.7,0,2.5-0.8,2.5-1.8c0-1.1-1.2-1.6-2.2-2
				l-0.4-0.2c-1.5-0.6-2.9-1.3-2.9-3.3c0-1.9,1.5-3.1,3.9-3.1c1.4,0,2.1,0.3,2.8,0.6l-0.1,1.5c-0.8-0.4-1.8-0.7-2.6-0.7
				c-1.4,0-2.3,0.5-2.3,1.6c0,1.1,1.2,1.6,2.1,1.9l0.4,0.1c1.7,0.6,3,1.5,3,3.4C235,85.9,233.5,87.3,230.9,87.3z"/>
			<path class="st0" d="M239.1,87.1V75.7h6.3v1.4h-4.7v3.3h4.3v1.4h-4.3v3.8l4.7,0v1.4H239.1z"/>
			<path class="st0" d="M253.7,87.3c-2.7,0-4.1-1.2-4.1-4v-7.6h1.7v7.6c0,1.7,0.8,2.6,2.5,2.6c1.7,0,2.5-0.9,2.5-2.6v-7.6h1.6v7.6
				C257.9,86.1,256.4,87.3,253.7,87.3z"/>
			<path class="st0" d="M271.8,87.1l-0.4-9.1h0l-3.6,6.5l-3.6-6.5h0l-0.4,9.1h-1.6l0.7-11.4h1.7l3.2,5.8h0l3.2-5.8h1.7l0.7,11.4
				H271.8z"/>
			<path class="st0" d="M151,105.1v-5.2h-5v5.2h-1.7V93.7h1.7v4.8h5v-4.8h1.6v11.4H151z"/>
			<path class="st0" d="M164.1,105.1l-1-2.9h-4.7l-1,2.9h-1.7l4.2-11.4h1.7l4.2,11.4H164.1z M160.8,95.5L160.8,95.5l-1.9,5.4h3.7
				L160.8,95.5z"/>
			<path class="st0" d="M175.5,105.1l-1.5-3.6c-0.3-0.7-0.8-1-1.4-1H171v4.7h-1.7V93.7h3.7c2.4,0,3.8,1,3.8,3.2
				c0,1.4-0.8,2.4-2.3,2.9v0c0,0,0.6,0.2,0.9,0.9l2,4.4H175.5z M172.8,95.1H171v3.9h1.6c1.8,0,2.6-0.8,2.6-2
				C175.1,95.8,174.5,95.1,172.8,95.1z"/>
			<path class="st0" d="M184.8,105.1h-3.3V93.7h3.4c1.8,0,3.7,0.5,3.7,2.8c0,2-1.8,2.5-1.8,2.5v0c0,0,2.2,0.3,2.2,2.7
				C189,104,187.5,105.1,184.8,105.1z M184.8,95.1h-1.7v3.4h1.5c1.5,0,2.3-0.6,2.3-1.8C186.9,95.5,186.1,95.1,184.8,95.1z
				 M184.7,99.9h-1.6v3.9h1.6c1.7,0,2.6-0.6,2.6-1.9C187.3,100.4,186.3,99.9,184.7,99.9z"/>
			<path class="st0" d="M196.9,105.3c-2.7,0-4.1-1.2-4.1-4v-7.6h1.7v7.6c0,1.7,0.8,2.6,2.5,2.6c1.7,0,2.5-0.9,2.5-2.6v-7.6h1.6v7.6
				C201.1,104.2,199.6,105.3,196.9,105.3z"/>
			<path class="st0" d="M211.6,105.1l-1.5-3.6c-0.3-0.7-0.8-1-1.4-1H207v4.7h-1.7V93.7h3.7c2.4,0,3.8,1,3.8,3.2
				c0,1.4-0.8,2.4-2.3,2.9v0c0,0,0.6,0.2,0.9,0.9l2,4.4H211.6z M208.9,95.1H207v3.9h1.6c1.8,0,2.6-0.8,2.6-2
				C211.2,95.8,210.6,95.1,208.9,95.1z"/>
			<path class="st0" d="M221,105.3c-3.9,0-4.4-2.9-4.4-5.9c0-3,0.7-5.9,5-5.9c1.9,0,3.1,0.7,3.1,0.7l-0.1,1.5c0,0-1.6-0.7-3-0.7
				c-2.2,0-3.3,1.2-3.3,3.6v1.7c0,2.7,1.2,3.6,2.8,3.6c1.2,0,2.1-0.4,2.1-0.4v-3h-2.1v-1.5h3.8v5.3
				C224.9,104.3,223.4,105.3,221,105.3z"/>
		</g>
	</g>
</g>
</svg>
